<?xml version="1.0" encoding="UTF-8"?>
<svg id="Layer_1" xmlns="http://www.w3.org/2000/svg" version="1.1" viewBox="0 0 920 1750">
  <!-- Generator: Adobe Illustrator 29.0.1, SVG Export Plug-In . SVG Version: 2.1.0 Build 192)  -->
  <defs>
    <style>
      .st0 {
        fill: #1e1e1e;
      }
    </style>
  </defs>
  <g>
    <path class="st0" d="M599.7,328.1c0-20.6-22.4-28.5-50.1-28.5s-47.1,16.7-47.1,37.3,13.5,34.3,41.2,34.3c27.7,0,56.1-22.6,56.1-43.2Z"/>
    <path class="st0" d="M727.8,336.9c0-20.6-19.5-37.3-47.1-37.3s-50.1,7.9-50.1,28.5,28.4,43.2,56.1,43.2c27.7,0,41.2-13.7,41.2-34.3Z"/>
    <path class="st0" d="M615.7,359.5c-17.4,0-36.4,57.4-20.7,63.7,5.9,2.4,13.1-11.8,20.7-11.8s14.8,14.1,20.7,11.8c15.7-6.3-3.3-63.7-20.7-63.7Z"/>
    <polygon class="st0" points="803.5 423.4 731.4 447.1 743.6 460.7 705.1 494.3 777.1 470.7 765 457.1 803.5 423.4"/>
    <polygon class="st0" points="500 447.1 427.9 423.4 466.4 457.1 454.3 470.7 526.4 494.4 487.9 460.7 500 447.1"/>
    <path class="st0" d="M716.1,423.8c3.3,1.9,6.9,2.9,10.8,2.9,24.1,0,49.8-37,54-56.3,2.7-12.3-2.8-16.8-6.3-18.4-8.1-3.6-17.1-30.9-8.1-52.8,11.6-28.3,11.6-58.1,11.5-63.8,0-6.6-.7-13.2-2-19.8,0-.3-.1-.6-.2-.8v-.3c-.2-.4-.3-.8-.5-1.2-1.5-3.5-4.8-10.8-52.6-16.5-3.7-.4-7.5-.8-11.4-1.2l24.4-85.5c.5-1.6,0-3.4-1.2-4.7l-82.9-84.3c-1.2-1.2-3-1.7-4.7-1.3l-115.2,28.9c-1.7.4-3,1.7-3.5,3.3l-32.3,113.2c-.5,1.7,0,3.4,1.2,4.7l25,25.4c-4.6.4-9.1.9-13.3,1.4-47.9,5.7-51.1,13-52.6,16.5-.2.4-.3.7-.4,1.1v.3c-.2.3-.2.6-.3.9-1.3,6.5-2,13.2-2,19.8-.1,5.7-.1,35.5,11.5,63.8,9,21.8,0,49.1-8.1,52.8-3.5,1.6-9,6.1-6.3,18.4,4.2,19.3,29.9,56.3,54,56.3s7.5-1,10.8-2.9c3.6-2.1,7.2-3.2,10.6-3.2,6.3,0,10.8,3.5,13.5,6.4,5.7,6.3,8.6,16,7.7,26.2-1.4,3-2.1,6.1-2.1,9.3s0,.7,0,1.1c-.1,1,0,2,.4,2.9,3.7,19,33.4,33.2,70.3,33.2s66.8-14.2,70.3-33.3c.3-.8.4-1.8.3-2.7,0-.4,0-.8,0-1.2,0-3.1-.7-6.3-2.1-9.3-.9-10.2,2-19.9,7.7-26.2,2.7-2.9,7.2-6.4,13.5-6.4,3.5,0,7,1.1,10.6,3.2ZM710.6,162.4l-51.3,12.9,14.2-49.8,51.2-12.7-14.2,49.7ZM614.9,140.4l36.3,37-50.4,12.7-36.8-37.4,50.9-12.3ZM562.6,148l14.2-49.8,51.5-13.8-14.6,51.3-51.1,12.3ZM618.4,137.1l14.6-51.2,35.9,38.2-14.2,49.9-36.2-36.9ZM723.6,108.1l-51.2,12.7-36.1-38.5,48.9-13.1,38.3,38.9ZM646.5,29.9l34.9,35.4-48.8,13.1-34.2-36.4,48.1-12.1ZM593,43.3l34.3,36.5-51.7,13.8-36.3-36.9,53.7-13.5ZM535.9,60.1l36.3,36.9-14.1,49.6-36.3-36.9,14.2-49.6ZM505.9,165l14.3-50,36.3,36.9-14.3,50.2-2.9-3.2-4.8-5.1h0l-28.6-28.8ZM678.5,454.8c1.3,2.5,1.9,5,1.9,7.6s0,1,0,1.6c0,0,0,.2,0,.3,0,0,0,0-.1,0-2,16.4-30.2,29.5-64.6,29.5s-62.6-13-64.6-29.5c0,0,0,0-.1,0,0,0,0-.2,0-.3,0-.5,0-1,0-1.6,0-2.6.7-5.2,2-7.6,2.4-21.8-10.3-40.1-27-40.1s-9,1.2-13.7,4c-2.4,1.4-5,2.1-7.7,2.1-25.5,0-60-56.8-45.2-63.4,12-5.4,20.8-36.8,11.2-60.3-12.1-29.4-11-61-11-61.6,0-6.3.6-12.6,1.8-18.6,0-.4.2-.7.3-1.1,2.7-6.1,28.1-11.5,65.8-14.8l6,6.1c-33.6,2.2-55.5,5.8-55.5,9.8s37.5,9.6,90,11.3l-21.8-22.3h0v-.6s1.9-7.4,1.9-7.4h0l1.7-6h0l10.7-36.6,36.9,37.9-1.2,4.3-2,7.2-6.9,24.2c1.7,0,3.3,0,5,.1l6.9-24.2,2-7.1.8-2.6,12.8-3.1h0l37.6-9.6-6.5,22.7-6.9,24c1.7,0,3.4,0,5.1-.1l1.6-5.6,12.1-42.5,51.3-12.9-14.3,50.2-16.7,4.2-25.5,6.4c58.2-1.4,100.9-6.2,100.9-11.8s-17.7-6.9-45.8-9.1l1.8-6.3c34.6,3.3,57.7,8.5,60.3,14.3,0,.4.2.7.3,1.1,1.2,6.1,1.8,12.3,1.8,18.6s1.1,32.1-11,61.6c-9.7,23.5-.8,54.9,11.2,60.3,14.8,6.7-19.7,63.4-45.2,63.4s-5.3-.6-7.8-2.1c-4.7-2.7-9.3-4-13.7-4-16.7,0-29.4,18.3-27,40.1Z"/>
  </g>
  <g>
    <path class="st0" d="M415.8,1068.1c-12.4-26-45.5-22.5-80.5-5.8-35,16.7-49.5,49.5-37.1,75.6,12.4,26,37.8,35.3,72.8,18.6,35-16.7,57.3-62.3,44.9-88.4Z"/>
    <path class="st0" d="M583.1,1002c-12.4-26-47.1-35.4-82.1-18.7-35,16.7-58.6,40.1-46.2,66.2s61.9,37.5,96.9,20.8c35-16.7,43.8-42.2,31.4-68.2Z"/>
    <path class="st0" d="M455,1098.1c-22,10.5-11.4,94.5,12.2,93,8.9-.6,9.4-22.8,19.1-27.4,9.6-4.6,27.2,9,33.2,2.4,16-17.4-42.5-78.5-64.5-68Z"/>
    <polygon class="st0" points="731 1065.8 654.1 1139.2 677.7 1149 649.2 1214.8 726.1 1141.4 702.5 1131.5 731 1065.8"/>
    <polygon class="st0" points="361.5 1278.7 256.1 1292.2 325 1311.5 317.9 1336 423.3 1322.5 354.3 1303.2 361.5 1278.7"/>
    <path class="st0" d="M620.7,1118.8c5.3.4,10.5-.5,15.3-2.9,30.4-14.5,40.6-76.8,34.4-103.7-4-17.2-13.7-19.6-19.1-19.5-12.4.3-40.2-28.8-42.1-61.8-2.4-42.8-20.4-80.5-23.9-87.6-4-8.3-8.8-16.4-14.4-23.8-.2-.3-.5-.6-.7-.9l-.3-.3c-.4-.5-.8-.9-1.2-1.3-4.1-3.5-12.5-10.7-76.5,10.9-4.9,1.7-10,3.5-15.2,5.4l-20.7-122.8c-.4-2.4-2-4.3-4.3-5.2l-155.7-56.5c-2.3-.8-4.8-.4-6.7,1.2l-128.3,106.1c-1.9,1.6-2.8,4-2.4,6.3l27.4,162.6c.4,2.4,2,4.3,4.3,5.2l47,17.1c-5.6,3.3-10.9,6.6-16,9.8-57.1,36.1-56.8,47.2-56.6,52.6,0,.5,0,1.1.2,1.6v.5c.2.4.3.8.4,1.2,2.3,9,5.5,17.8,9.4,26.2,3.3,7.3,21.2,45,53,73.7,24.5,22.2,29.6,62.2,21.6,71.6-3.5,4.1-7.8,13.1,3.1,27.1,17,21.8,71.8,53.1,102.2,38.6,4.9-2.3,8.9-5.7,11.9-10.1,3.3-4.8,7.2-8.3,11.6-10.4,8-3.8,15.8-2.1,20.9,0,11,4.5,20.5,15.1,25.5,28.5,0,4.6,1.1,9,2.9,13s.5.9.7,1.4c.4,1.3,1.2,2.5,2.2,3.5,16.1,21.8,62.3,21.8,108.9-.4,46.7-22.3,75.8-58.2,68.8-84.5-.1-1.3-.5-2.5-1.2-3.6-.2-.5-.4-1-.7-1.5-1.9-4-4.7-7.5-8.2-10.5-7.2-12.3-9.5-26.3-6.1-37.7,1.6-5.3,5.2-12.4,13.2-16.3,4.4-2.1,9.5-2.9,15.3-2.4ZM456.2,791.7l-57.1,47.2-12-71.6,57.1-46.9,12,71.4ZM321.9,821.5l68.2,24.9-56.1,46.4-69-25.1,57-46.2ZM260.4,862.7l-12.1-71.5,56.8-48.5,12.4,73.7-57.2,46.3ZM324.3,815.2l-12.4-73.5,68.4,26.7,12,71.6-68.1-24.8ZM439.8,715.2l-57,46.9-68.9-26.9,54-46.1,71.9,26.1ZM295.2,662.7l65.5,23.8-53.8,45.9-65.2-25.5,53.6-44.3ZM235.7,711.9l65.3,25.5-57,48.6-68.1-24.8,59.7-49.4ZM173.5,767.6l68.1,24.8,12,71.3-68.1-24.7-12-71.3ZM198.8,918.3l-12.1-71.9,68.2,24.8,12.2,72.2-5.6-2.3-9.1-3.6h0s-53.5-19.1-53.5-19.1ZM591.8,1180.8c3.1,2.3,5.5,5.2,7.1,8.5s.6,1.3.8,2c0,.1.2.2.3.3,0,0-.1,0-.1.1,7.4,22-20.4,55.4-63.9,76.2-43.6,20.8-87,21.3-99.5,1.7,0,0-.1,0-.2,0,0-.1,0-.3,0-.4-.4-.6-.7-1.3-1-1.9-1.6-3.3-2.3-7-2.1-10.8-10.1-29.1-37.2-44.5-58.3-34.4-5.5,2.6-10.6,7-14.9,13.3-2.2,3.3-5.1,5.6-8.6,7.3-32.2,15.3-110.1-35.6-95.4-53,11.9-14.1,4.2-59.1-22.3-83-33-29.9-50.8-70.5-51.1-71.2-3.8-8-6.8-16.3-8.9-24.7-.1-.5-.2-1-.3-1.6-.3-9.4,28.6-31.5,74.3-58.4l11.2,4.1c-41.2,23.1-66.6,40.8-64.2,45.9,3.2,6.7,53.1-10.5,120.6-40l-41-15.1h0s-.4-.8-.4-.8l-2-10.5h0s-1.5-8.6-1.5-8.6h0s-8.6-52.7-8.6-52.7l69.5,25.6,1.1,6.2,1.8,10.4,5.9,34.7c2.1-1,4.3-1.9,6.4-2.9l-5.9-34.8-1.7-10.3-.6-3.8,14.4-11.6h0s41.7-34.7,41.7-34.7l5.5,32.6,5.8,34.5c2.1-1.1,4.2-2.1,6.3-3.2l-1.4-8.1-10.3-61,57.1-47.2,12.1,72.1-18.6,15.3-28.3,23.4c72.7-36.9,123.9-68.7,120.5-75.8-2.2-4.6-26.5,2-63.4,16l-1.5-9c45.8-16.6,78.1-24.1,84.8-18.2.3.4.7.8,1,1.2,5.2,7,9.7,14.4,13.6,22.4.3.7,20.7,40,23.2,84.5,2,35.6,32.1,70,50.5,69.6,22.7-.5,13.3,92.1-18.9,107.5s-7.1,2.4-11,2.1c-7.6-.6-14.2.6-19.7,3.2-21.1,10.1-26.1,40.8-9.9,67Z"/>
  </g>
</svg>